<?xml version="1.0" encoding="utf-8"?>
<!-- Generator: Adobe Illustrator 25.2.3, SVG Export Plug-In . SVG Version: 6.00 Build 0)  -->
<svg version="1.1" xmlns="http://www.w3.org/2000/svg" xmlns:xlink="http://www.w3.org/1999/xlink" x="0px" y="0px"
	 viewBox="0 0 841.89 595.28" style="enable-background:new 0 0 841.89 595.28;" xml:space="preserve">
<style type="text/css">
	.st0{fill:#FFFFFF;}
	.st1{clip-path:url(#SVGID_2_);}
	.st2{fill:none;stroke:url(#SVGID_3_);stroke-width:7.5;stroke-linecap:round;stroke-miterlimit:10;}
	.st3{fill:url(#SVGID_4_);}
</style>
<g id="圖層_1">
</g>
<g id="圖層_2">
	<g>
		<g>
			<g>
				<path class="st0" d="M594.26,470.22c-133.91,0-267.82,0-401.73,0c0-115.06,0-230.11,0-345.17c133.91,0,267.82,0,401.73,0
					C594.26,240.11,594.26,355.17,594.26,470.22z M502.97,286.19c-0.12,0.07-0.23,0.14-0.35,0.21c-0.23-0.3-0.42-0.62-0.68-0.88
					c-2.22-2.26-4.81-3.92-7.81-4.95c-4.33-1.5-8.75-1.62-13.18-0.65c-7.4,1.61-12.87,5.8-16.1,12.72
					c-2.23,4.78-2.7,9.84-1.85,14.99c1.22,7.33,5.01,12.97,11.59,16.56c4.33,2.36,8.99,3.19,13.9,2.81c4.5-0.34,8.51-1.88,12-4.76
					c0.14-0.11,0.28-0.21,0.57-0.43c0.03,0.53,0.07,0.9,0.07,1.26c0.01,1.61,0,3.23,0,4.84c0,3.31,0.01,6.61,0,9.92
					c-0.01,1.59-0.47,2.03-2.08,2.04c-1.42,0.01-2.84,0-4.27,0.01c-0.29,0-0.59,0.05-0.88,0.08c0,2.45,0,4.81,0,7.25
					c0.28,0.02,0.51,0.05,0.73,0.05c2.35,0,4.69,0,7.04,0c0.34,0,0.69-0.01,1.03-0.07c5.67-0.92,9.53-5.39,9.53-11.13
					c0.01-18.49,0.01-36.98,0.01-55.47c0-0.37,0-0.74,0-1.22c-3.17-0.01-6.18-0.02-9.28,0
					C502.97,281.75,502.97,283.97,502.97,286.19z M343.11,327.21c0-2.64,0-5.04,0-7.53c-0.44-0.02-0.81-0.06-1.19-0.06
					c-1.42-0.01-2.85,0.01-4.27-0.01c-1.42-0.01-1.81-0.42-1.83-1.88c0-0.27,0-0.54,0-0.81c0-12.03,0-24.07,0-36.1
					c0-0.45,0-0.9,0-1.4c-3.14,0-6.14,0-9.28,0c0,2.36,0,4.63,0,6.92c-0.17-0.03-0.22-0.02-0.24-0.04
					c-0.19-0.18-0.39-0.36-0.58-0.56c-2.01-2.13-4.37-3.75-7.08-4.83c-4.57-1.83-9.29-2.03-14.04-1.02
					c-7.42,1.58-12.9,5.75-16.14,12.66c-2.38,5.07-2.84,10.43-1.75,15.88c1.32,6.63,4.8,11.83,10.67,15.3
					c4.54,2.68,9.47,3.66,14.71,3.24c5.1-0.4,9.51-2.3,13.18-5.87c0.13-0.12,0.3-0.2,0.47-0.31c0.23,0.39,0.41,0.73,0.62,1.05
					c1.77,2.77,4.25,4.64,7.51,5.02C336.88,327.22,339.93,327.11,343.11,327.21z M531.29,303.23c0,0.85-0.02,1.69,0.01,2.54
					c0.01,0.46,0.1,0.92,0.16,1.37c1.26,8.48,5.7,14.63,13.51,18.2c5.57,2.54,11.45,2.89,17.36,1.56
					c8.22-1.85,14.03-6.71,17.03-14.67c1.69-4.49,1.93-9.16,1.08-13.85c-1.61-8.87-6.71-14.95-15.18-18
					c-5.96-2.15-12.09-2.1-18.1-0.15c-6.08,1.97-10.63,5.88-13.5,11.64C531.9,295.43,531.14,299.24,531.29,303.23z M397.7,327.04
					c3.79,0,7.39,0,11.09,0c0-0.53,0-0.99,0-1.45c0-12.11,0-24.22,0-36.33c0-0.38-0.02-0.77,0.02-1.15
					c0.11-0.85,0.59-1.28,1.45-1.34c0.19-0.01,0.38-0.01,0.58-0.01c5.96,0,11.92,0,17.88,0c0.23,0,0.46-0.01,0.69,0.01
					c0.73,0.08,1.19,0.53,1.27,1.25c0.04,0.34,0.02,0.69,0.02,1.04c0,8.88,0,17.76,0,26.64c0,2.79,0.81,5.3,2.62,7.45
					c3.21,3.8,7.47,4.29,12.1,3.88c0-2.46,0-4.86,0-7.41c-0.59,0-1.12,0-1.64,0c-1.55-0.01-1.94-0.41-1.96-2c0-0.27,0-0.54,0-0.81
					c0-8.61,0.01-17.22-0.01-25.83c0-0.92-0.03-1.85-0.2-2.75c-0.96-5.15-5.65-8.95-10.95-8.9c-7.27,0.08-14.53,0.01-21.8,0.03
					c-0.8,0-1.62,0.05-2.4,0.22c-5.28,1.19-8.75,5.54-8.75,10.95c-0.01,11.76,0,23.53,0,35.29
					C397.7,326.2,397.7,326.58,397.7,327.04z M272.65,279.42c-0.36-0.03-0.62-0.07-0.89-0.07c-4.65,0-9.31-0.01-13.96,0
					c-0.61,0-1.24,0.03-1.84,0.14c-5.29,1.02-8.99,5.47-9,10.87c-0.02,11.88-0.01,23.76,0,35.65c0,0.33,0.05,0.66,0.07,0.97
					c1.62,0.25,10.17,0.18,11.02-0.1c0-0.44,0-0.9,0-1.35c0-12.27,0-24.53,0-36.8c0-1.57,0.4-1.97,1.97-1.97c3.77,0,7.54,0,11.31,0
					c0.41,0,0.82,0,1.31,0C272.65,284.27,272.65,281.91,272.65,279.42z M373.23,283.14c-1.31-0.24-10.17-0.2-11.05,0.03
					c-0.02,0.18-0.05,0.37-0.05,0.56c0,10.88-0.03,21.76,0.02,32.64c0.02,4.8,3.45,9.06,8.09,10.33c1.92,0.52,3.88,0.42,5.84,0.42
					c0.25,0,0.5-0.08,0.72-0.11c0-2.48,0-4.88,0-7.38c-0.74,0-1.39,0.02-2.03,0c-1-0.04-1.47-0.5-1.54-1.48
					c-0.02-0.31-0.01-0.61-0.01-0.92c0-10.88,0-21.76,0-32.64C373.23,284.12,373.23,283.66,373.23,283.14z M362.2,264.71
					c0,3.42,0,6.71,0,10.01c3.69,0,7.31,0,11.03,0c-0.04-3.38,0.06-6.7-0.06-10.01C369.45,264.71,365.85,264.71,362.2,264.71z"/>
				<path d="M502.97,286.19c0-2.22,0-4.44,0-6.83c3.09-0.02,6.11-0.01,9.28,0c0,0.47,0,0.84,0,1.22c0,18.49,0.01,36.98-0.01,55.47
					c0,5.74-3.86,10.21-9.53,11.13c-0.34,0.06-0.69,0.07-1.03,0.07c-2.35,0.01-4.69,0.01-7.04,0c-0.22,0-0.44-0.03-0.73-0.05
					c0-2.43,0-4.8,0-7.25c0.29-0.03,0.59-0.08,0.88-0.08c1.42-0.01,2.84,0,4.27-0.01c1.61-0.01,2.07-0.45,2.08-2.04
					c0.01-3.31,0-6.61,0-9.92c0-1.61,0-3.23,0-4.84c0-0.37-0.04-0.73-0.07-1.26c-0.28,0.21-0.43,0.31-0.57,0.43
					c-3.49,2.88-7.49,4.42-12,4.76c-4.91,0.38-9.57-0.45-13.9-2.81c-6.59-3.59-10.37-9.23-11.59-16.56
					c-0.86-5.15-0.38-10.21,1.85-14.99c3.23-6.91,8.69-11.11,16.1-12.72c4.42-0.96,8.85-0.84,13.18,0.65
					c2.99,1.04,5.59,2.69,7.81,4.95c0.26,0.26,0.46,0.59,0.68,0.88C502.73,286.33,502.85,286.26,502.97,286.19z M501.13,303.35
					c0-2.09-0.24-3.98-0.8-5.84c-2.21-7.41-9.86-11.6-17.08-9.34c-3.67,1.15-6.23,3.63-7.79,7.06c-2.34,5.12-2.32,10.35-0.2,15.55
					c0.9,2.21,2.36,4.04,4.25,5.51c3.29,2.57,7.03,2.9,10.94,2.04c4.34-0.95,7.42-3.54,9.22-7.62
					C500.71,308.32,501.14,305.79,501.13,303.35z"/>
				<path d="M343.11,327.21c-3.18-0.1-6.23,0.01-9.23-0.34c-3.26-0.38-5.74-2.25-7.51-5.02c-0.21-0.32-0.39-0.66-0.62-1.05
					c-0.17,0.11-0.35,0.19-0.47,0.31c-3.68,3.57-8.08,5.47-13.18,5.87c-5.24,0.41-10.18-0.56-14.71-3.24
					c-5.87-3.47-9.35-8.68-10.67-15.3c-1.09-5.45-0.63-10.81,1.75-15.88c3.24-6.91,8.72-11.08,16.14-12.66
					c4.75-1.01,9.47-0.81,14.04,1.02c2.71,1.09,5.07,2.71,7.08,4.83c0.18,0.19,0.38,0.37,0.58,0.56c0.02,0.02,0.07,0.01,0.24,0.04
					c0-2.29,0-4.56,0-6.92c3.14,0,6.15,0,9.28,0c0,0.5,0,0.95,0,1.4c0,12.03,0,24.07,0,36.1c0,0.27,0,0.54,0,0.81
					c0.01,1.46,0.4,1.87,1.83,1.88c1.42,0.01,2.85,0,4.27,0.01c0.37,0,0.75,0.04,1.19,0.06
					C343.11,322.17,343.11,324.57,343.11,327.21z M310.51,318.67c0.31,0,0.62,0.01,0.92,0c5.85-0.26,10.29-3.55,12.23-9.08
					c1.14-3.26,1.38-6.61,0.72-10c-0.24-1.24-0.57-2.48-1.05-3.64c-2.11-5.06-6.04-7.74-11.42-8.22
					c-5.94-0.52-10.61,2.36-13.06,7.83c-0.81,1.81-1.28,3.7-1.45,5.66c-0.37,4.29,0.31,8.37,2.81,11.98
					C302.68,316.79,306.06,318.77,310.51,318.67z"/>
				<path d="M531.29,303.23c-0.16-3.99,0.6-7.8,2.38-11.38c2.86-5.76,7.42-9.67,13.5-11.64c6.01-1.95,12.13-2,18.1,0.15
					c8.47,3.05,13.57,9.13,15.18,18c0.85,4.69,0.61,9.37-1.08,13.85c-2.99,7.96-8.8,12.82-17.03,14.67
					c-5.9,1.33-11.78,0.99-17.36-1.56c-7.82-3.56-12.26-9.72-13.51-18.2c-0.07-0.46-0.15-0.91-0.16-1.37
					C531.28,304.92,531.29,304.07,531.29,303.23z M542.33,303.18c0,2.65,0.25,4.57,0.95,6.58c2.2,6.31,7.26,10.4,15.15,9.28
					c4.62-0.66,7.75-3.49,9.72-7.64c0.95-2,1.4-4.14,1.55-6.34c0.24-3.58-0.07-7.08-1.69-10.34c-3.1-6.21-8.28-8.19-14.25-7.38
					c-4.62,0.63-7.79,3.4-9.78,7.55C542.73,297.51,542.27,300.3,542.33,303.18z"/>
				<path d="M397.7,327.04c0-0.46,0-0.84,0-1.21c0-11.76,0-23.53,0-35.29c0-5.42,3.47-9.76,8.75-10.95c0.78-0.18,1.6-0.22,2.4-0.22
					c7.27-0.02,14.53,0.05,21.8-0.03c5.3-0.06,9.99,3.74,10.95,8.9c0.17,0.9,0.2,1.83,0.2,2.75c0.01,8.61,0.01,17.22,0.01,25.83
					c0,0.27,0,0.54,0,0.81c0.02,1.59,0.41,1.99,1.96,2c0.53,0,1.05,0,1.64,0c0,2.54,0,4.95,0,7.41c-4.62,0.41-8.89-0.08-12.1-3.88
					c-1.81-2.15-2.62-4.66-2.62-7.45c0-8.88,0-17.76,0-26.64c0-0.35,0.02-0.69-0.02-1.04c-0.08-0.72-0.55-1.17-1.27-1.25
					c-0.23-0.02-0.46-0.01-0.69-0.01c-5.96,0-11.92,0-17.88,0c-0.19,0-0.39-0.01-0.58,0.01c-0.86,0.06-1.34,0.49-1.45,1.34
					c-0.05,0.38-0.02,0.77-0.02,1.15c0,12.11,0,24.22,0,36.33c0,0.46,0,0.91,0,1.45C405.09,327.04,401.49,327.04,397.7,327.04z"/>
				<path d="M272.65,279.42c0,2.49,0,4.86,0,7.34c-0.49,0-0.9,0-1.31,0c-3.77,0-7.54,0-11.31,0c-1.57,0-1.97,0.4-1.97,1.97
					c0,12.27,0,24.53,0,36.8c0,0.46,0,0.92,0,1.35c-0.85,0.28-9.4,0.35-11.02,0.1c-0.02-0.31-0.07-0.64-0.07-0.97
					c0-11.88-0.02-23.76,0-35.65c0.01-5.4,3.72-9.85,9-10.87c0.6-0.12,1.22-0.14,1.84-0.14c4.65-0.01,9.31-0.01,13.96,0
					C272.03,279.35,272.3,279.39,272.65,279.42z"/>
				<path d="M373.23,283.14c0,0.52,0,0.98,0,1.44c0,10.88,0,21.76,0,32.64c0,0.31-0.02,0.62,0.01,0.92
					c0.07,0.97,0.54,1.44,1.54,1.48c0.65,0.02,1.3,0,2.03,0c0,2.5,0,4.9,0,7.38c-0.22,0.04-0.47,0.11-0.72,0.11
					c-1.96,0.01-3.92,0.1-5.84-0.42c-4.64-1.26-8.07-5.52-8.09-10.33c-0.05-10.88-0.02-21.76-0.02-32.64c0-0.19,0.03-0.38,0.05-0.56
					C363.06,282.94,371.92,282.9,373.23,283.14z"/>
				<path d="M362.2,264.71c3.65,0,7.24,0,10.98,0c0.11,3.32,0.02,6.63,0.06,10.01c-3.72,0-7.34,0-11.03,0
					C362.2,271.42,362.2,268.13,362.2,264.71z"/>
				<path class="st0" d="M501.13,303.35c0,2.45-0.42,4.97-1.47,7.36c-1.8,4.08-4.87,6.66-9.22,7.62c-3.9,0.86-7.64,0.53-10.94-2.04
					c-1.89-1.47-3.34-3.31-4.25-5.51c-2.13-5.2-2.14-10.42,0.2-15.55c1.57-3.43,4.13-5.91,7.79-7.06
					c7.23-2.27,14.88,1.93,17.08,9.34C500.89,299.36,501.13,301.26,501.13,303.35z"/>
				<path class="st0" d="M310.51,318.67c-4.45,0.1-7.83-1.88-10.31-5.46c-2.5-3.61-3.18-7.68-2.81-11.98
					c0.17-1.96,0.64-3.86,1.45-5.66c2.45-5.47,7.12-8.35,13.06-7.83c5.38,0.47,9.31,3.16,11.42,8.22c0.48,1.16,0.81,2.4,1.05,3.64
					c0.66,3.39,0.42,6.73-0.72,10c-1.94,5.53-6.38,8.81-12.23,9.08C311.13,318.68,310.82,318.67,310.51,318.67z"/>
				<path class="st0" d="M542.33,303.18c-0.05-2.88,0.4-5.67,1.65-8.29c1.98-4.16,5.15-6.93,9.78-7.55
					c5.97-0.81,11.15,1.17,14.25,7.38c1.63,3.26,1.94,6.76,1.69,10.34c-0.15,2.2-0.6,4.34-1.55,6.34c-1.97,4.15-5.1,6.98-9.72,7.64
					c-7.89,1.13-12.96-2.96-15.15-9.28C542.58,307.75,542.33,305.83,542.33,303.18z"/>
			</g>
		</g>
		<g>
			<g>
				<defs>
					<polygon id="SVGID_1_" points="649.36,299.56 630.97,299.56 630.97,279.42 619.97,279.42 619.97,299.56 601.58,299.56 
						601.58,307.06 619.97,307.06 619.97,327.2 630.97,327.2 630.97,307.06 649.36,307.06 					"/>
				</defs>
				<clipPath id="SVGID_2_">
					<use xlink:href="#SVGID_1_"  style="overflow:visible;"/>
				</clipPath>
				<g class="st1">
				</g>
			</g>
		</g>
		<linearGradient id="SVGID_3_" gradientUnits="userSpaceOnUse" x1="397.558" y1="259.27" x2="597.9051" y2="259.27">
			<stop  offset="0" style="stop-color:#FFFFFF"/>
			<stop  offset="0.1056" style="stop-color:#F7FBFA"/>
			<stop  offset="0.2871" style="stop-color:#E0EFE8"/>
			<stop  offset="0.3754" style="stop-color:#D2E8DE"/>
			<stop  offset="0.4751" style="stop-color:#CCE5D9"/>
			<stop  offset="0.6234" style="stop-color:#B9DBCD"/>
			<stop  offset="0.6263" style="stop-color:#B8DBCD"/>
			<stop  offset="0.8008" style="stop-color:#AFD7C6"/>
			<stop  offset="0.9945" style="stop-color:#9FD0BA"/>
		</linearGradient>
		<path class="st2" d="M594.16,268.31c-7.7-3.21-40.3-17.93-96.42-18.08c-50.98-0.14-87.53,14.11-96.42,18.08"/>
		<linearGradient id="SVGID_4_" gradientUnits="userSpaceOnUse" x1="601.5784" y1="303.3075" x2="649.3604" y2="303.3075">
			<stop  offset="0" style="stop-color:#9FD0BA"/>
			<stop  offset="0.5892" style="stop-color:#C1E0D1"/>
			<stop  offset="1" style="stop-color:#D2E8DE"/>
		</linearGradient>
		<line class="st3" x1="601.58" y1="303.31" x2="649.36" y2="303.31"/>
	</g>
</g>
</svg>
